Coordinates
version=1
nRows=46
nColumns=24
inDegrees=yes

Units are S.I. units (second, meters, Newtons, ...)
If the header above contains a line with 'inDegrees', this indicates whether rotational values are in degrees (yes) or radians (no).

endheader
time	pelvis_tilt	pelvis_list	pelvis_rotation	pelvis_tx	pelvis_ty	pelvis_tz	hip_flexion_r	hip_adduction_r	hip_rotation_r	knee_angle_r	ankle_angle_r	subtalar_angle_r	mtp_angle_r	hip_flexion_l	hip_adduction_l	hip_rotation_l	knee_angle_l	ankle_angle_l	subtalar_angle_l	mtp_angle_l	lumbar_extension	lumbar_bending	lumbar_rotation
1.775000	12.651487	1.350926	-181.627392	0.264925	0.771800	-1.212230	42.081547	-20.316442	-23.142076	-52.861860	16.962407	10.969945	0.000000	42.031405	-25.883037	-23.399617	-53.366585	17.079732	13.972119	0.000000	-4.159237	1.866161	2.130550
1.780000	12.760413	1.313105	-181.672053	0.264122	0.774748	-1.211858	41.643465	-20.168330	-23.338518	-51.855190	16.470990	11.055156	0.000000	41.550206	-25.619277	-23.679647	-52.416524	16.657576	13.894385	0.000000	-3.880115	1.874848	2.133594
1.785000	12.728859	1.297408	-181.719232	0.263209	0.777823	-1.211725	41.043740	-19.961848	-23.509917	-50.842526	16.028195	11.085095	0.000000	40.916266	-25.393652	-23.944737	-51.459804	16.221172	13.775616	0.000000	-3.756855	1.870303	2.127144
1.790000	12.692162	1.312076	-181.751064	0.262304	0.780858	-1.211733	40.425413	-19.717438	-23.692617	-49.827979	15.581213	11.096352	0.000000	40.294300	-25.197193	-24.178332	-50.499241	15.788578	13.720551	0.000000	-3.635323	1.875957	2.133936
1.795000	12.713563	1.244780	-181.762257	0.261528	0.783679	-1.211462	39.913828	-19.597443	-23.858674	-48.848982	15.098886	11.144024	0.000000	39.742334	-24.875440	-24.396377	-49.548910	15.360864	13.568730	0.000000	-3.458606	1.837116	2.095946
1.800000	12.696993	1.276289	-181.809993	0.260613	0.786534	-1.211467	39.313350	-19.330940	-24.054380	-47.822259	14.637745	11.169607	0.000000	39.161431	-24.699126	-24.604404	-48.619542	14.925880	13.462897	0.000000	-3.318188	1.868132	2.083816
1.805000	12.727981	1.197305	-181.835874	0.259843	0.789198	-1.211170	38.841681	-19.208285	-24.174034	-46.869105	14.178744	11.175690	0.000000	38.626485	-24.374749	-24.824197	-47.682449	14.504784	13.319112	0.000000	-3.135643	1.820649	2.079633
1.810000	12.727966	1.204351	-181.882418	0.258950	0.791873	-1.210957	38.301713	-18.999944	-24.359019	-45.902711	13.725009	11.223530	0.000000	38.075368	-24.155473	-25.016621	-46.775728	14.100859	13.191726	0.000000	-2.974854	1.854355	2.073941
1.815000	12.669994	1.268870	-181.929140	0.257962	0.794603	-1.210923	37.669071	-18.697878	-24.533126	-44.902542	13.310300	11.180711	0.000000	37.472484	-23.996286	-25.163487	-45.857147	13.663305	13.047847	0.000000	-2.870481	1.952324	2.049676
1.820000	12.648992	1.159423	-181.905112	0.257270	0.797109	-1.210696	37.160095	-18.627408	-24.651429	-43.992434	12.882157	11.180299	0.000000	36.926520	-23.611422	-25.318350	-44.940334	13.255691	12.878182	0.000000	-2.761511	1.827592	1.971816
1.825000	12.595837	1.211072	-181.903148	0.256330	0.799714	-1.210714	36.522382	-18.352845	-24.833801	-42.987916	12.454693	11.169334	0.000000	36.360210	-23.426568	-25.439764	-44.032753	12.854826	12.804707	0.000000	-2.659441	1.873429	1.931368
1.830000	12.603613	1.219473	-181.915541	0.255521	0.802116	-1.210629	35.990429	-18.123050	-24.965959	-42.005866	12.006578	11.158257	0.000000	35.864259	-23.176823	-25.534772	-43.136257	12.461067	12.633296	0.000000	-2.509601	1.882614	1.868318
1.835000	12.628762	1.151144	-181.934793	0.254778	0.804403	-1.210315	35.540531	-17.986993	-25.041890	-41.090070	11.562525	11.148022	0.000000	35.382076	-22.835196	-25.645224	-42.249095	12.059848	12.373992	0.000000	-2.339808	1.844018	1.828057
1.840000	12.635792	1.261749	-182.011228	0.253772	0.806727	-1.210204	34.997994	-17.631090	-25.181807	-40.112989	11.117450	11.101125	0.000000	34.885744	-22.731083	-25.747785	-41.392886	11.655088	12.189425	0.000000	-2.168673	1.990862	1.861316
1.845000	12.571742	1.257297	-182.010174	0.252927	0.808919	-1.210056	34.435676	-17.437308	-25.291147	-39.220396	10.699119	11.055940	0.000000	34.345363	-22.473529	-25.820502	-40.550125	11.265128	11.984618	0.000000	-2.098932	1.986973	1.812190
1.850000	12.559481	1.236518	-182.006384	0.252112	0.811037	-1.209861	33.925440	-17.256756	-25.387943	-38.305178	10.270280	11.015529	0.000000	33.852812	-22.184535	-25.881025	-39.688218	10.904368	11.799767	0.000000	-1.971505	1.970392	1.762607
1.855000	12.529373	1.204039	-182.013933	0.251191	0.813055	-1.209615	33.403040	-17.094696	-25.486168	-37.406672	9.838100	10.980645	0.000000	33.343669	-21.911480	-25.989940	-38.873122	10.566157	11.646861	0.000000	-1.859103	1.943084	1.735694
1.860000	12.506735	1.185646	-182.001774	0.250345	0.815032	-1.209524	32.898659	-16.905630	-25.548741	-36.528107	9.434732	10.899346	0.000000	32.866085	-21.641143	-26.028299	-38.049672	10.197781	11.460779	0.000000	-1.718106	1.937571	1.624462
1.865000	12.479552	1.195557	-182.020771	0.249548	0.816956	-1.209335	32.404940	-16.682567	-25.592524	-35.659315	9.025376	10.811123	0.000000	32.390651	-21.399897	-26.046545	-37.241357	9.845177	11.201885	0.000000	-1.609358	1.962486	1.597264
1.870000	12.505811	1.235655	-182.091980	0.248652	0.818757	-1.209071	31.972810	-16.428562	-25.656673	-34.796260	8.619934	10.735778	0.000000	31.964648	-21.230942	-26.127978	-36.478088	9.510048	10.985122	0.000000	-1.429245	2.040211	1.627079
1.875000	12.461828	1.218165	-182.081456	0.247887	0.820361	-1.208929	31.505012	-16.279256	-25.749304	-34.029561	8.243721	10.681613	0.000000	31.513211	-20.994866	-26.180968	-35.747674	9.186068	10.880688	0.000000	-1.341951	2.013636	1.564311
1.880000	12.438384	1.166284	-182.073002	0.247142	0.822000	-1.208747	31.037524	-16.127788	-25.748906	-33.180159	7.892369	10.555043	0.000000	31.069982	-20.675769	-26.133739	-34.972860	8.871577	10.548463	0.000000	-1.218284	1.977537	1.487296
1.885000	12.394193	1.206637	-182.089773	0.246267	0.823574	-1.208767	30.532150	-15.868944	-25.794340	-32.344565	7.532684	10.429718	0.000000	30.624619	-20.526217	-26.173763	-34.271894	8.566013	10.398897	0.000000	-1.116396	1.998155	1.465177
1.890000	12.423269	1.222812	-182.166356	0.245400	0.824965	-1.208513	30.157917	-15.652038	-25.813026	-31.574351	7.182276	10.332276	0.000000	30.239288	-20.356454	-26.247921	-33.587823	8.289434	10.197841	0.000000	-0.929483	2.045116	1.520192
1.895000	12.403635	1.252085	-182.208627	0.244644	0.826450	-1.208397	29.725992	-15.428234	-25.887843	-30.803520	6.812129	10.226872	0.000000	29.829986	-20.200611	-26.314909	-32.911601	7.961487	9.998897	0.000000	-0.813928	2.095638	1.535947
1.900000	12.430110	1.176294	-182.224700	0.244063	0.827708	-1.208173	29.407968	-15.330972	-25.879665	-30.114659	6.488195	10.081085	0.000000	29.478834	-19.887698	-26.279789	-32.208143	7.657777	9.625301	0.000000	-0.667466	2.025012	1.494929
1.905000	12.433262	1.219422	-182.264829	0.243216	0.829019	-1.208232	28.978642	-15.084933	-25.952903	-29.330838	6.140382	10.081272	0.000000	29.102488	-19.781088	-26.383917	-31.569395	7.363144	9.538296	0.000000	-0.495899	2.083512	1.434239
1.910000	12.354963	1.229747	-182.269252	0.242517	0.830293	-1.208263	28.490131	-14.881369	-25.983117	-28.577365	5.846762	9.980429	0.000000	28.678008	-19.617378	-26.416838	-30.961956	7.154251	9.385061	0.000000	-0.456141	2.068323	1.416654
1.915000	12.382949	1.225123	-182.321113	0.241699	0.831363	-1.208014	28.157823	-14.735245	-26.058752	-27.909403	5.539125	9.977515	0.000000	28.340838	-19.451074	-26.525680	-30.360148	6.941296	9.236303	0.000000	-0.293788	2.065602	1.424701
1.920000	12.385416	1.253341	-182.373313	0.241053	0.832467	-1.207977	27.815839	-14.518300	-26.044806	-27.242951	5.259972	9.846902	0.000000	27.995837	-19.304421	-26.515348	-29.743223	6.691636	8.942037	0.000000	-0.177622	2.105477	1.428108
1.925000	12.427019	1.289751	-182.433219	0.240462	0.833471	-1.207900	27.519696	-14.314432	-26.115991	-26.591440	4.957752	9.777830	0.000000	27.721101	-19.197537	-26.567324	-29.193854	6.418984	8.740659	0.000000	-0.020434	2.157911	1.465200
1.930000	12.429960	1.274223	-182.460704	0.239880	0.834409	-1.207831	27.209977	-14.186274	-26.165825	-25.996123	4.682925	9.699686	0.000000	27.411254	-19.022716	-26.587977	-28.646782	6.193945	8.544761	0.000000	0.087576	2.138980	1.433767
1.935000	12.416607	1.264249	-182.509346	0.239134	0.835221	-1.207773	26.880251	-14.057054	-26.227140	-25.418260	4.425315	9.714513	0.000000	27.074998	-18.884719	-26.682030	-28.134481	6.025978	8.450104	0.000000	0.208241	2.134701	1.425622
1.940000	12.317891	1.158529	-182.450616	0.238252	0.836250	-1.207177	26.430296	-14.114350	-26.394529	-24.823360	4.123493	9.730341	0.000000	26.646596	-18.538928	-26.682250	-27.561603	5.813042	8.262157	0.000000	0.239043	2.065988	1.299818
1.945000	12.301244	1.107221	-182.483055	0.237526	0.836945	-1.206962	26.134624	-14.068817	-26.486469	-24.313122	3.946361	9.835454	0.000000	26.326209	-18.332181	-26.704591	-27.055398	5.624843	7.995039	0.000000	0.352489	2.033437	1.287045
1.950000	12.288441	1.134231	-182.534691	0.236906	0.837664	-1.206944	25.836405	-13.908947	-26.564005	-23.782923	3.756954	9.891308	0.000000	26.042588	-18.245889	-26.735823	-26.606424	5.443013	7.803835	0.000000	0.451995	2.054668	1.322436
1.955000	12.326682	1.119771	-182.530395	0.236416	0.838308	-1.206843	25.599894	-13.814938	-26.656180	-23.261238	3.522360	9.868168	0.000000	25.839777	-18.085171	-26.704697	-26.142075	5.242851	7.612119	0.000000	0.593444	2.040454	1.265135
1.960000	12.270472	1.124474	-182.566590	0.235670	0.838952	-1.206783	25.250413	-13.694327	-26.741408	-22.744570	3.334072	9.895369	0.000000	25.510775	-17.973131	-26.742708	-25.712647	5.110500	7.456235	0.000000	0.654204	2.041600	1.277970
1.965000	12.329675	1.091734	-182.547676	0.235394	0.839462	-1.206713	25.061756	-13.614952	-26.784435	-22.247105	3.130089	9.831790	0.000000	25.379426	-17.793544	-26.638542	-25.307147	4.917033	7.165901	0.000000	0.806546	2.016592	1.238817
1.970000	12.335584	1.110466	-182.578640	0.234818	0.840002	-1.206698	24.809219	-13.480886	-26.855695	-21.772640	2.924496	9.845739	0.000000	25.133525	-17.705976	-26.689326	-24.878020	4.746888	7.051495	0.000000	0.922740	2.039306	1.254163
1.975000	12.335549	1.075928	-182.620133	0.234169	0.840400	-1.206495	24.576532	-13.431057	-26.945696	-21.346071	2.796583	9.905534	0.000000	24.889834	-17.562881	-26.737834	-24.503294	4.643857	6.883084	0.000000	1.044613	2.026337	1.272352
1.980000	12.307197	1.127324	-182.680178	0.233530	0.840918	-1.206447	24.296717	-13.273133	-27.050676	-20.899025	2.611259	9.979418	0.000000	24.608587	-17.530989	-26.826001	-24.108534	4.509983	6.799486	0.000000	1.119900	2.090500	1.295515
1.985000	12.267145	1.101266	-182.705474	0.232873	0.841363	-1.206325	24.008905	-13.219887	-27.174366	-20.462466	2.481383	10.072453	0.000000	24.320587	-17.400279	-26.895781	-23.718392	4.402157	6.712007	0.000000	1.185809	2.069061	1.298076
1.990000	12.364466	1.107632	-182.713740	0.232605	0.841744	-1.206374	23.884059	-13.100574	-27.231611	-20.015714	2.341431	10.131110	0.000000	24.244552	-17.326252	-26.915055	-23.380782	4.286249	6.707106	0.000000	1.360492	2.060405	1.275916
1.995000	12.314736	1.084081	-182.711621	0.232116	0.842129	-1.206357	23.587000	-13.028744	-27.333454	-19.543793	2.206816	10.134245	0.000000	23.983807	-17.207338	-26.978520	-23.027226	4.170297	6.600554	0.000000	1.390421	2.030246	1.218440
2.000000	12.353674	1.040596	-182.735128	0.231499	0.842484	-1.206172	23.408667	-13.003586	-27.450714	-19.147519	2.027593	10.217458	0.000000	23.783445	-17.064070	-27.086813	-22.642876	4.054304	6.547492	0.000000	1.542739	2.006631	1.206922
